<?xml version="1.0" encoding="UTF-8" standalone="no"?>
<!-- Created with Inkscape (http://www.inkscape.org/) -->

<svg
   width="412.36874mm"
   height="412.30026mm"
   viewBox="0 0 412.36874 412.30026"
   version="1.1"
   id="svg5"
   inkscape:version="1.1.1 (c3084ef, 2021-09-22)"
   sodipodi:docname="logoBlanco.svg"
   xmlns:inkscape="http://www.inkscape.org/namespaces/inkscape"
   xmlns:sodipodi="http://sodipodi.sourceforge.net/DTD/sodipodi-0.dtd"
   xmlns="http://www.w3.org/2000/svg"
   xmlns:svg="http://www.w3.org/2000/svg">
  <sodipodi:namedview
     id="namedview7"
     pagecolor="#ffffff"
     bordercolor="#666666"
     borderopacity="1.0"
     inkscape:pageshadow="2"
     inkscape:pageopacity="0.0"
     inkscape:pagecheckerboard="0"
     inkscape:document-units="mm"
     showgrid="false"
     fit-margin-top="0"
     fit-margin-left="0"
     fit-margin-right="0"
     fit-margin-bottom="0"
     inkscape:zoom="0.24"
     inkscape:cx="1789.5833"
     inkscape:cy="300"
     inkscape:window-width="1920"
     inkscape:window-height="1080"
     inkscape:window-x="0"
     inkscape:window-y="0"
     inkscape:window-maximized="0"
     inkscape:current-layer="layer1" />
  <defs
     id="defs2" />
  <g
     inkscape:label="Layer 1"
     inkscape:groupmode="layer"
     id="layer1"
     transform="translate(78.6783,64.693207)">
    <path
       style="fill:#ffffff;fill-opacity:1;stroke-width:0.264583"
       d="m -78.399731,149.12462 0.01223,-21.52406 L 35.091941,6.5788734 c 68.358429,0.0219 175.033629,-3.83282 172.559779,-3.71544 C 104.42479,9.3983994 -67.333203,32.626048 -78.387501,127.60056 l -0.1538,1.98438 49.55161,29.49573 c 27.2533819,16.22266 53.679392,31.96051 58.724472,34.97299 l 9.17287,5.47726 2.86567,0.60907 c 3.81679,0.81124 11.17314,0.87916 14.63963,0.13518 9.70268,-2.08241 14.34916,-7.62634 15.339905,-18.30274 0.17361,-1.87092 0.27015,-22.76868 0.27029,-58.51007 l 2.2e-4,-55.599669 2.05052,-0.550635 c 3.44693,-0.925618 6.933,-1.240877 9.54511,-0.863206 3.85154,0.556874 6.13428,2.025505 7.42454,4.776658 l 0.6913,1.474005 V 128.5266 c 0,45.32163 -0.0671,56.32497 -0.35643,58.47291 -1.95968,14.54759 -9.87449,24.47772 -22.752485,28.54587 -1.21097,0.38254 -3.82921,1.01375 -5.81831,1.40269 -3.37695,0.66032 -4.10732,0.70813 -11.02487,0.72194 -5.85507,0.0117 -8.03323,-0.0837 -10.3888,-0.45476 -3.95069,-0.62238 -7.13652,-1.5702 -9.71953,-2.89169 -1.16417,-0.59557 -2.29526,-1.16324 -2.51354,-1.26142 -0.21828,-0.0982 -24.4281801,-14.4934 -53.799772,-31.98935 -29.3716,-17.49595 -53.56397,-31.87263 -53.76083,-31.94817 -0.40906,-0.15697 13.542746,10.42177 14.198736,18.53341 3.85633,47.68495 53.181266,48.57552 86.975986,83.23153 -40.92442,17.76535 41.21659,100.95312 184.446969,12.28065 8.9307,-7.02964 18.50915,-7.81533 25.76268,-16.02609 25.65762,-29.04361 80.30852,-35.88391 97.53236,-70.14126 0,0 2.13331,-14.55684 1.89947,-14.76794 -0.73916,-0.66729 -124.53403,-74.136366 -126.38164,-75.004276 -9.01642,-4.235402 -19.22836,-6.232832 -29.89792,-5.84795 -4.72236,0.170349 -7.85961,0.623665 -11.38351,1.644853 -8.42518,2.441517 -14.21556,7.705967 -16.28667,14.807384 -0.79012,2.709109 -0.97398,7.568809 -0.39568,10.458079 1.51212,7.55462 7.15536,12.70619 18.35406,16.75492 1.84899,0.66848 7.82664,2.53453 13.28368,4.14679 14.9689,4.42249 18.35631,5.65737 25.0962,9.14881 9.97403,5.16683 16.61158,11.24006 20.21189,18.49348 3.44168,6.9338 4.69826,17.10833 3.23554,26.19822 -2.56487,15.93924 -14.25803,28.04907 -31.65951,32.78768 -6.4102,1.74556 -12.20835,2.3918 -21.38204,2.38323 -11.0917,-0.0103 -18.51673,-1.0259 -27.22118,-3.72301 -11.61053,-3.59754 -20.16029,-9.92126 -21.49853,-15.90113 -0.42388,-1.89409 0.0348,-4.93651 1.01613,-6.73946 0.94185,-1.7305 3.59641,-4.17953 5.63386,-5.19765 l 1.63975,-0.81939 2.15717,1.87289 c 6.37667,5.53634 13.56468,9.38122 21.86863,11.69759 11.71842,3.26882 25.42257,2.91786 34.47034,-0.88278 5.97599,-2.51028 11.02294,-7.56606 13.41115,-13.4346 2.23266,-5.48631 2.42443,-12.1404 0.51531,-17.88103 -2.13376,-6.41612 -6.50153,-10.73355 -14.92303,-14.75102 -4.01283,-1.91431 -6.52825,-2.78385 -17.99563,-6.22079 -18.69054,-5.60181 -20.26097,-6.14799 -25.74944,-8.9554 -10.80866,-5.52877 -17.25233,-12.8393 -19.71727,-22.3698 -1.7452,-6.7477 -1.64794,-15.551201 0.245,-22.174993 0.87265,-3.053607 3.39576,-8.144265 5.33582,-10.765637 6.19281,-8.367618 16.86783,-14.302373 29.69943,-16.511353 5.30945,-0.914032 9.40993,-1.171546 15.9708,-1.002988 13.99736,0.359617 24.60141,2.786873 33.50628,7.669552 1.67349,0.917599 29.17693,17.247386 61.11875,36.288419 31.94183,19.04103 58.28441,34.67609 58.53907,34.74459 0.54999,0.14793 -10.83416,-5.22603 -11.16847,-14.34717 -0.5962,-16.26519 -33.98645,-22.66409 -37.76537,-37.521837 C 276.1795,59.353443 263.4392,47.252505 241.42713,22.149394 234.48209,14.229081 210.18729,1.8674514 201.6251,-5.0070266 c -33.76393,-27.1086624 -4.47093,4.35371204 -47.6544,2.285902 -2.47385,-0.11846 6.89583,-19.8218044 57.06917,28.4083546 l 122.1934,117.46092 -0.8168,19.08677 -46.28638,58.32255 -144.08034,47.86553 -72.495839,18.2803 z"
       id="path11064"
       sodipodi:nodetypes="ccccccsscsssscssscscsssssssssccssssssssssssssssssscsssssssssssssssssssssscccccc" />
    <path
       style="fill:#0a192f;fill-opacity:1;stroke-width:0.264583"
       d="M 116.34109,347.45992 C 84.634756,345.5877 54.912666,337.09579 27.970246,322.21147 -27.257834,291.70075 -65.586875,237.74943 -75.984115,175.88701 c -1.21679,-7.23975 -2.19418,-16.28888 -2.63869,-24.43007 -0.10956,-2.00663 -0.0677,-2.44392 0.22309,-2.33232 0.19686,0.0755 24.38923,14.45222 53.760821,31.94817 29.3715899,17.49595 53.58149,31.89116 53.79977,31.98935 0.21828,0.0982 1.34937,0.66585 2.51354,1.26142 2.58301,1.32149 5.76884,2.26931 9.71954,2.89169 2.35557,0.37108 4.53372,0.46643 10.3888,0.45476 6.91755,-0.0138 7.64791,-0.0616 11.02487,-0.72194 1.98909,-0.38894 4.60733,-1.02015 5.8183,-1.40269 12.878,-4.06815 20.79282,-13.99828 22.75249,-28.54587 0.28935,-2.14794 0.35642,-13.15128 0.35642,-58.47291 V 72.699513 l -0.69129,-1.474 c -1.29025,-2.75116 -3.573,-4.21979 -7.42453,-4.77666 -2.61212,-0.37767 -6.0982,-0.0624 -9.54512,0.86321 l -2.05052,0.55063 -2.2e-4,55.599657 c -1.4e-4,35.7414 -0.0967,56.63916 -0.2703,58.51008 -0.99073,10.6764 -5.63721,16.22033 -15.3399,18.30274 -3.46649,0.74398 -10.82284,0.67606 -14.63963,-0.13518 l -2.86567,-0.60907 -9.17287,-5.47726 c -5.04508,-3.01248 -31.4710901,-18.75033 -58.72447,-34.97299 l -49.551601,-29.49574 0.1538,-1.98437 c 1.74736,-22.54529 6.10054,-41.989337 13.74265,-61.383337 12.87178,-32.665793 33.218771,-60.7185687 60.7327909,-83.733467 3.94509999,-3.299992 11.36337,-8.821545 16.4339201,-12.232061 46.64519,-31.374173 104.130274,-42.228836 159.381714,-30.095373 53.4711,11.742506 100.28618,44.651759 129.83358,91.268188 17.76921,28.03419 28.31037,59.582383 31.16272,93.26563 0.22848,2.69819 0.76659,14.83321 0.79039,17.82409 0.005,0.59481 -0.0939,0.73159 -0.457,0.63392 -0.25466,-0.0685 -26.59724,-15.70356 -58.53907,-34.74459 -31.94182,-19.041027 -59.44526,-35.370817 -61.11875,-36.288417 -8.90487,-4.88268 -19.50892,-7.30993 -33.50628,-7.66955 -6.56087,-0.16856 -10.66135,0.089 -15.9708,1.00299 -12.8316,2.20898 -23.50662,8.14373 -29.69943,16.51135 -1.94006,2.62137 -4.46317,7.71203 -5.33582,10.76564 -1.89294,6.623786 -1.9902,15.427287 -0.245,22.174987 2.46494,9.5305 8.90861,16.84102 19.71727,22.3698 5.48847,2.80742 7.0589,3.35359 25.74944,8.9554 11.46738,3.43694 13.9828,4.30648 17.99563,6.22079 5.33046,2.54289 8.90728,5.13044 11.36518,8.22181 1.86161,2.34139 2.64052,3.77079 3.55785,6.52921 1.90913,5.74063 1.71736,12.39472 -0.5153,17.88103 -2.38821,5.86854 -7.43516,10.92432 -13.41115,13.4346 -9.04777,3.80064 -22.75192,4.1516 -34.47034,0.88278 -8.30395,-2.31637 -15.49196,-6.16125 -21.86863,-11.69759 l -2.15717,-1.87289 -1.63975,0.81939 c -2.03745,1.01812 -4.69201,3.46715 -5.63386,5.19765 -0.98129,1.80295 -1.44001,4.84537 -1.01613,6.73946 1.33824,5.97987 9.888,12.30359 21.49853,15.90113 8.70445,2.69711 16.12948,3.71261 27.22118,3.72301 9.17369,0.008 14.97184,-0.63767 21.38204,-2.38323 17.40148,-4.73861 29.09464,-16.84844 31.65951,-32.78768 1.17652,-7.31136 0.62828,-15.30288 -1.49781,-21.83259 -3.07908,-9.4566 -10.00876,-16.6734 -21.94962,-22.8591 -6.73989,-3.49146 -10.1273,-4.72633 -25.0962,-9.14883 -5.45704,-1.61225 -11.43469,-3.4783 -13.28368,-4.14678 -11.1987,-4.04873 -16.84194,-9.2003 -18.35406,-16.75492 -0.5783,-2.88927 -0.39444,-7.74897 0.39568,-10.458077 1.6632,-5.70274 5.78522,-10.31041 11.70575,-13.08486 4.49757,-2.10763 9.33641,-3.12828 15.96443,-3.36738 10.66956,-0.38488 20.8815,1.61255 29.89792,5.84795 1.84761,0.86791 125.64248,74.336987 126.38164,75.004277 0.23384,0.2111 -0.90664,9.07815 -1.89947,14.76794 -6.59106,37.7728 -23.28762,72.36659 -48.94524,101.4102 -7.25353,8.21076 -17.79411,18.1366 -26.7248,25.16624 -15.85571,12.48053 -33.37862,22.51808 -52.40652,30.01979 -18.785,7.40592 -38.73651,11.9271 -60.0379,13.60508 -4.86557,0.38328 -21.1889,0.54346 -26.06146,0.25575 z"
       id="path11008" />
  </g>
</svg>
